<?xml version="1.0" encoding="utf-8"?>
<!-- Generator: Adobe Illustrator 24.0.3, SVG Export Plug-In . SVG Version: 6.00 Build 0)  -->
<svg version="1.1" id="Layer_1" xmlns="http://www.w3.org/2000/svg" xmlns:xlink="http://www.w3.org/1999/xlink" x="0px" y="0px"
	 viewBox="0 0 700 700" style="enable-background:new 0 0 700 700;" xml:space="preserve">
<style type="text/css">
	.st0{opacity:0.79;}
	.st1{fill:#FFFFFF;}
	.st2{fill:#E86E33;}
	.st3{fill:none;}
</style>
<title>edufund</title>
<g class="st0">
	<path class="st1" d="M29.6,296.8V31.8h640.9v636.4H29.6v-364c13.3,7.3,26.3,15.1,39.9,21.8c6.2,3,8,6.6,8,13.2
		c-0.3,28.9-0.4,57.7-0.1,86.6c0.2,17.9-1.3,35.3-9.1,51.8c-1.8,3.9-3.8,9.7-2.3,12.8c3.4,6.9,8,15.8,14.2,18s16.2-0.9,22.3-5
		c8.4-5.6,8.4-15.7,4.6-24.8c-18.3-44.6-6.5-91-10.9-139.3c14.5,7.2,26.4,12.5,37.8,18.8c11,6.1,21.4,6,33.1,1.7
		c15.8-5.8,31.9-11.2,48.2-15c105.8-24.5,210.6-23.2,313.3,15.3c12.1,4.5,23.2,3.8,34.4-1.9c31.3-15.7,62.7-31.1,93.8-47
		c4.3-2.2,10.7-7.6,10.1-10.2c-1-4.5-6.1-9.2-10.6-11.5c-39.3-19.7-79-38.8-118.4-58.3c-59.4-29.5-118.7-59.2-177.9-89
		c-7.7-3.9-14-4.5-21.9-0.5c-47.5,23.7-95.2,46.8-142.8,70.4c-50.9,25.2-101.7,50.6-152.4,76.1C38.3,290.7,34,293.9,29.6,296.8z
		 M547,478h0.4v-28.5c0-34.3-0.1-34-33.1-46.4c-81.5-30.7-165.4-34.6-250.5-21.6c-37.4,5.7-74.3,14.7-107.9,33.3
		c-3.4,1.9-7.9,6-7.9,9.1c-0.4,36.7-1,73.4,0.6,110.1c1,21.8,26.9,32.1,46.1,21.5c16.4-9.1,33.6-17.3,51.3-23.1
		c45.7-15.1,93.2-16.1,140.5-12.3c40.4,3.2,79.6,11.5,114.4,34.9c13.3,9.1,31.6,5.7,40.7-7.6c3-4.4,4.8-9.6,5.1-14.9
		C547.9,514.3,547,496.1,547,478z"/>
	<path class="st2" d="M29.6,296.8c4.5-2.8,8.8-6.1,13.5-8.5c50.8-25.5,101.6-50.8,152.4-76.1c47.6-23.6,95.3-46.7,142.8-70.4
		c8-4,14.3-3.3,21.9,0.5c59.2,29.9,118.4,59.5,177.8,88.9c39.4,19.6,79.1,38.6,118.4,58.3c4.5,2.3,9.6,7,10.6,11.5
		c0.6,2.5-5.8,8-10.1,10.2c-31.1,16-62.6,31.3-93.8,47c-11.3,5.7-22.3,6.5-34.4,1.9c-102.8-38.5-207.5-39.8-313.3-15.3
		c-16.4,3.8-32.4,9.2-48.2,15c-11.6,4.3-22.1,4.4-33.1-1.7c-11.3-6.3-23.2-11.6-37.8-18.8c4.4,48.3-7.4,94.8,10.9,139.3
		c3.7,9,3.7,19.1-4.6,24.8c-6.1,4.1-16.1,7.2-22.3,5s-10.7-11.1-14.2-18c-1.6-3.2,0.4-8.9,2.3-12.8c7.8-16.5,9.2-33.9,9.1-51.8
		c-0.3-28.9-0.3-57.7,0.1-86.6c0.1-6.6-1.8-10.2-8-13.2c-13.6-6.6-26.6-14.4-39.9-21.8L29.6,296.8z"/>
	<path class="st2" d="M547,478c0,18.1,0.9,36.3-0.2,54.4c-0.9,16.1-14.8,28.5-30.9,27.6c-5.3-0.3-10.5-2.1-14.8-5.1
		c-34.7-23.4-74-31.7-114.4-34.9c-47.4-3.8-94.8-2.8-140.5,12.3c-17.7,5.9-34.9,14-51.3,23.1c-19.2,10.7-45.2,0.3-46.1-21.5
		c-1.6-36.6-0.9-73.4-0.6-110c0-3.1,4.5-7.2,7.9-9.1c33.6-18.6,70.5-27.6,107.9-33.3c85-13,169-9.1,250.4,21.6
		c33,12.4,33.1,12.2,33.1,46.4V478H547z"/>
</g>
<path d="M578.2,632.9h-12.9c-0.7-0.3-1.4-0.5-2.1-0.6c-21.8-1.4-40.5-10.5-56.9-24.3c-14.2-12-23.5-27.4-28.5-45.3
	c-1.9-6.7-2.7-13.8-4-20.6V530c0.7-4.5,1.1-9,2.1-13.4c5.1-22.4,15.9-41.3,34.4-55.6c24.1-18.7,51.1-25.5,80.7-19.7
	c29.3,5.8,51.8,22.4,66.6,48.4c12.5,22,15,45.7,8.9,70.2c-4,16.6-12.6,31.7-24.9,43.6c-14.4,14-31.1,23.4-50.8,27.5
	C586.7,631.9,582.4,632.3,578.2,632.9z M571.8,608.8c40.7-0.3,73.3-33,73-73.2c-0.3-40.4-33.3-72.5-73.9-72.4
	c-39.3,0.1-73.5,34.5-73.2,73.4S532.8,609.5,571.8,608.8z"/>
<path class="st3" d="M578.2,632.9c4.2-0.6,8.5-1,12.6-1.9c19.6-4.2,36.3-13.5,50.8-27.5c12.3-11.9,20.9-27,24.9-43.6
	c6.1-24.5,3.5-48.2-8.9-70.2c-14.8-26-37.3-42.6-66.6-48.4c-29.6-5.9-56.6,1-80.7,19.7c-18.5,14.3-29.2,33.2-34.4,55.6
	c-1,4.4-1.4,8.9-2.1,13.4v-91.6h196.7v194.5H578.2z"/>
<path class="st1" d="M473.8,542.1c1.3,6.9,2.1,13.9,4,20.6c5,17.9,14.3,33.3,28.5,45.3c16.4,13.8,35.1,22.8,56.9,24.3
	c0.7,0.1,1.5,0.3,2.1,0.6h-91.5V542.1z"/>
<path class="st1" d="M571.8,608.8c-39,0.6-73.6-33.2-74-72.1s33.8-73.3,73.2-73.4c40.6-0.1,73.5,32,73.9,72.4
	C645.2,575.8,612.5,608.5,571.8,608.8z M572.8,575.3c9,0,17.9,0.1,26.8,0c13.3-0.2,24-8.2,27.4-20.3c3.5-12.7-1.8-24.8-13.6-31.9
	c-1.3-0.9-2.2-2.2-2.6-3.8c-3.8-15.4-16.9-26.8-32.7-28.4c-15.6-1.8-30.8,6.1-38.3,19.9c-1,1.7-2.5,3-4.2,3.8
	c-5.4,2.4-10.3,5.5-13.7,10.3c-7.3,10.3-8.8,21.4-3.1,32.9s15.4,17.3,28.3,17.5C555.6,575.4,564.2,575.3,572.8,575.3L572.8,575.3z"
	/>
<path d="M572.8,575.3c-8.6,0-17.2,0.1-25.7,0c-12.9-0.2-22.6-6-28.3-17.5s-4.1-22.6,3.1-32.9c3.4-4.8,8.3-7.9,13.7-10.3
	c1.8-0.8,3.2-2.1,4.2-3.8c7.5-13.8,22.6-21.7,38.3-19.9c15.8,1.6,28.9,13,32.7,28.4c0.4,1.5,1.3,2.8,2.6,3.8
	c11.8,7.1,17,19.2,13.6,31.9c-3.3,12.1-14,20.2-27.4,20.3C590.7,575.4,581.7,575.3,572.8,575.3z M551.4,529.2c-2,0-3.7-0.1-5.5,0
	c-11.3,1-17.4,12.5-11.7,22.2c3.2,5.5,8.3,7.4,14.4,7.4c16.7,0,33.3,0,49.9,0c1.1,0,2.3-0.1,3.4-0.2c5.8-1.1,9.8-5.8,9.6-11.4
	c-0.1-5.3-4.7-9.9-10.5-10.7c-2.1-0.2-4.1-0.4-6.2-0.6c0-18.7-5-26.4-17.9-28.3S556.7,511.9,551.4,529.2z"/>
<path class="st1" d="M551.4,529.2c5.3-17.4,12.7-23.5,25.6-21.6s17.9,9.7,17.9,28.3c2,0.2,4.1,0.4,6.2,0.6
	c5.8,0.7,10.3,5.3,10.5,10.7c0.1,5.5-3.8,10.3-9.6,11.4c-1.1,0.2-2.2,0.3-3.4,0.2c-16.6,0-33.3,0-49.9,0c-6,0-11.2-2-14.4-7.4
	c-5.7-9.7,0.4-21.2,11.7-22.2C547.7,529.1,549.5,529.2,551.4,529.2z"/>
</svg>
