<svg xmlns="http://www.w3.org/2000/svg" width="48" height="48"><rect data-name="rect" width="48" height="48" rx="7" ry="7" fill="#ff7c01"/><path data-name="shape1" d="M40.953 41h-6.586a26.88 26.88 0 0 0-7.45-18.8C18.684 13.264 7 13.734 7 13.734V7s15.761-.313 25.485 11.049S40.953 41 40.953 41zM24.094 25.958c6.117 7.679 5.406 14.966 5.406 14.966h-6.582s-.078-7.209-4.783-11.519A18.193 18.193 0 0 0 7 25.1v-6.743s10.978-.078 17.094 7.601zm-12.311 5.877A4.466 4.466 0 1 1 7.314 36.3a4.468 4.468 0 0 1 4.469-4.465z" fill="#fff" fill-rule="evenodd"/></svg>